#Comment line ignore any data following # character 
#Hierarchical Translation and Rotation (.htr) file 
[Header]	
#Header keywords are followed by a single value 
FileType HTR		#Single word string
DataType HTRS		#Translation followed by rotation and scale data
FileVersion 1		#integer
NumSegments 64		#integer
NumFrames 3		#integer
DataFrameRate 30		#integer, data frame rate in this file
EulerRotationOrder ZYX
CalibrationUnits mm
RotationUnits Degrees
GlobalAxisofGravity Y
BoneLengthAxis Y
ScaleFactor 1.00
[SegmentNames&Hierarchy]
#CHILD	PARENT
Pinger_Root GLOBAL
Pelvis Pinger_Root
L_Hip Pelvis
R_Hip Pelvis
Rear_Leg01 Pelvis
Spine1 Pelvis
L_Leg01 L_Hip
L_Leg02 L_Leg01
L_Leg03 L_Leg02
L_Foot L_Leg03
L_Toe1_01 L_Foot
L_Toe2_01 L_Foot
L_Toe3_01 L_Foot
planeAlignerLeft L_Foot
L_Toe1_02 L_Toe1_01
L_Toe1_03 L_Toe1_02
L_Toe2_02 L_Toe2_01
L_Toe2_03 L_Toe2_02
L_Toe3_02 L_Toe3_01
L_Toe3_03 L_Toe3_02
planeLockWeightLeft planeAlignerLeft
R_Leg01 R_Hip
R_Leg02 R_Leg01
R_Leg03 R_Leg02
R_Foot R_Leg03
planeAlignerRight R_Foot
R_Toe1_01 R_Foot
R_Toe2_01 R_Foot
R_Toe3_01 R_Foot
planeLockWeightRight planeAlignerRight
R_Toe1_02 R_Toe1_01
R_Toe1_03 R_Toe1_02
R_Toe2_02 R_Toe2_01
R_Toe2_03 R_Toe2_02
R_Toe3_02 R_Toe3_01
R_Toe3_03 R_Toe3_02
Rear_Leg02 Rear_Leg01
Rear_Leg03 Rear_Leg02
Rear_Leg04 Rear_Leg03
Rear_Foot Rear_Leg04
planeAlignerCenter Rear_Foot
Rear_Toe1_01 Rear_Foot
Rear_Toe2_01 Rear_Foot
Rear_Toe3_01 Rear_Foot
planeLockWeightCenter planeAlignerCenter
Rear_Toe1_02 Rear_Toe1_01
Rear_Toe1_03 Rear_Toe1_02
Rear_Toe2_02 Rear_Toe2_01
Rear_Toe2_03 Rear_Toe2_02
Rear_Toe3_02 Rear_Toe3_01
Rear_Toe3_03 Rear_Toe3_02
Back_Bone Spine1
Head Spine1
Motor_Bone Back_Bone
Ping_Mechanism Back_Bone
BN_LookIK Head
bottomMouth Head
L_Mouth01 Head
L_mouthFront Head
mouthGun Head
R_Mouth01 Head
R_mouthFront Head
TopMouth Head
weapon_bone Head
[BasePosition]
#SegmentName Tx, Ty, Tz, Rx, Ry, Rz, BoneLength
Pinger_Root 0.000000 0.000000 0.000000 -90.000000 0.000000 0.000000 10.000000 
Pelvis 0.000000 0.000000 0.000000 0.000000 0.000000 0.000000 10.000000 
L_Hip 0.000000 0.000000 0.000000 0.000000 0.000000 0.000000 10.000000 
R_Hip 0.000000 0.000000 0.000000 0.000000 0.000000 0.000000 10.000000 
Rear_Leg01 0.000000 0.000000 0.000000 0.000000 0.000000 0.000000 10.000000 
Spine1 0.000000 0.000000 0.000000 0.000000 0.000000 0.000000 10.000000 
L_Leg01 0.000000 0.000000 0.000000 0.000000 0.000000 0.000000 10.000000 
L_Leg02 0.000000 0.000000 0.000000 0.000000 0.000000 0.000000 10.000000 
L_Leg03 0.000000 0.000000 0.000000 0.000000 0.000000 0.000000 10.000000 
L_Foot 0.000000 0.000000 0.000000 0.000000 0.000000 0.000000 10.000000 
L_Toe1_01 0.000000 0.000000 0.000000 0.000000 0.000000 0.000000 10.000000 
L_Toe2_01 0.000000 0.000000 0.000000 0.000000 0.000000 0.000000 10.000000 
L_Toe3_01 0.000000 0.000000 0.000000 0.000000 0.000000 0.000000 10.000000 
planeAlignerLeft 0.000000 0.000000 0.000000 0.000000 0.000000 0.000000 10.000000 
L_Toe1_02 0.000000 0.000000 0.000000 0.000000 0.000000 0.000000 10.000000 
L_Toe1_03 0.000000 0.000000 0.000000 0.000000 0.000000 0.000000 10.000000 
L_Toe2_02 0.000000 0.000000 0.000000 0.000000 0.000000 0.000000 10.000000 
L_Toe2_03 0.000000 0.000000 0.000000 0.000000 0.000000 0.000000 10.000000 
L_Toe3_02 0.000000 0.000000 0.000000 0.000000 0.000000 0.000000 10.000000 
L_Toe3_03 0.000000 0.000000 0.000000 0.000000 0.000000 0.000000 10.000000 
planeLockWeightLeft 0.000000 0.000000 0.000000 0.000000 0.000000 0.000000 10.000000 
R_Leg01 0.000000 0.000000 0.000000 0.000000 0.000000 0.000000 10.000000 
R_Leg02 0.000000 0.000000 0.000000 0.000000 0.000000 0.000000 10.000000 
R_Leg03 0.000000 0.000000 0.000000 0.000000 0.000000 0.000000 10.000000 
R_Foot 0.000000 0.000000 0.000000 0.000000 0.000000 0.000000 10.000000 
planeAlignerRight 0.000000 0.000000 0.000000 0.000000 0.000000 0.000000 10.000000 
R_Toe1_01 0.000000 0.000000 0.000000 0.000000 0.000000 0.000000 10.000000 
R_Toe2_01 0.000000 0.000000 0.000000 0.000000 0.000000 0.000000 10.000000 
R_Toe3_01 0.000000 0.000000 0.000000 0.000000 0.000000 0.000000 10.000000 
planeLockWeightRight 0.000000 0.000000 0.000000 0.000000 0.000000 0.000000 10.000000 
R_Toe1_02 0.000000 0.000000 0.000000 0.000000 0.000000 0.000000 10.000000 
R_Toe1_03 0.000000 0.000000 0.000000 0.000000 0.000000 0.000000 10.000000 
R_Toe2_02 0.000000 0.000000 0.000000 0.000000 0.000000 0.000000 10.000000 
R_Toe2_03 0.000000 0.000000 0.000000 0.000000 0.000000 0.000000 10.000000 
R_Toe3_02 0.000000 0.000000 0.000000 0.000000 0.000000 0.000000 10.000000 
R_Toe3_03 0.000000 0.000000 0.000000 0.000000 0.000000 0.000000 10.000000 
Rear_Leg02 0.000000 0.000000 0.000000 0.000000 0.000000 0.000000 10.000000 
Rear_Leg03 0.000000 0.000000 0.000000 0.000000 0.000000 0.000000 10.000000 
Rear_Leg04 0.000000 0.000000 0.000000 0.000000 0.000000 0.000000 10.000000 
Rear_Foot 0.000000 0.000000 0.000000 0.000000 0.000000 0.000000 10.000000 
planeAlignerCenter 0.000000 0.000000 0.000000 0.000000 0.000000 0.000000 10.000000 
Rear_Toe1_01 0.000000 0.000000 0.000000 0.000000 0.000000 0.000000 10.000000 
Rear_Toe2_01 0.000000 0.000000 0.000000 0.000000 0.000000 0.000000 10.000000 
Rear_Toe3_01 0.000000 0.000000 0.000000 0.000000 0.000000 0.000000 10.000000 
planeLockWeightCenter 0.000000 0.000000 0.000000 0.000000 0.000000 0.000000 10.000000 
Rear_Toe1_02 0.000000 0.000000 0.000000 0.000000 0.000000 0.000000 10.000000 
Rear_Toe1_03 0.000000 0.000000 0.000000 0.000000 0.000000 0.000000 10.000000 
Rear_Toe2_02 0.000000 0.000000 0.000000 0.000000 0.000000 0.000000 10.000000 
Rear_Toe2_03 0.000000 0.000000 0.000000 0.000000 0.000000 0.000000 10.000000 
Rear_Toe3_02 0.000000 0.000000 0.000000 0.000000 0.000000 0.000000 10.000000 
Rear_Toe3_03 0.000000 0.000000 0.000000 0.000000 0.000000 0.000000 10.000000 
Back_Bone 0.000000 0.000000 0.000000 0.000000 0.000000 0.000000 10.000000 
Head 0.000000 0.000000 0.000000 0.000000 0.000000 0.000000 10.000000 
Motor_Bone 0.000000 0.000000 0.000000 0.000000 0.000000 0.000000 10.000000 
Ping_Mechanism 0.000000 0.000000 0.000000 0.000000 0.000000 0.000000 10.000000 
BN_LookIK 0.000000 0.000000 0.000000 0.000000 0.000000 0.000000 10.000000 
bottomMouth 0.000000 0.000000 0.000000 0.000000 0.000000 0.000000 10.000000 
L_Mouth01 0.000000 0.000000 0.000000 0.000000 0.000000 0.000000 10.000000 
L_mouthFront 0.000000 0.000000 0.000000 0.000000 0.000000 0.000000 10.000000 
mouthGun 0.000000 0.000000 0.000000 0.000000 0.000000 0.000000 10.000000 
R_Mouth01 0.000000 0.000000 0.000000 0.000000 0.000000 0.000000 10.000000 
R_mouthFront 0.000000 0.000000 0.000000 0.000000 0.000000 0.000000 10.000000 
TopMouth 0.000000 0.000000 0.000000 0.000000 0.000000 0.000000 10.000000 
weapon_bone 0.000000 0.000000 0.000000 0.000000 0.000000 0.000000 10.000000 
#Beginning of Data. Separated by tabs
#Fr	Tx	Ty	Tz	Rx	Ry	Rz	SF
[Pinger_Root]
51 -0.000020 2500.000000 0.000000 -0.000075 -0.000000 -0.000020 2500.000000
52 -0.000020 2500.000000 0.000000 -0.000075 -0.000000 -0.000020 2500.000000
53 -0.000020 2500.000000 0.000000 -0.000075 -0.000000 -0.000020 2500.000000
[Pelvis]
51 249.802170 1288.223389 4202.428223 -98.331497 -69.302643 98.876572 4402.536133
52 258.101929 1262.147583 4144.976563 -94.036331 -70.960396 94.474228 4340.560547
53 260.978485 1229.831177 4097.881836 -88.952919 -72.491173 89.284096 4286.400391
[L_Hip]
51 5.766392 125.831482 872.656799 166.684418 -74.620682 104.154259 881.701050
52 5.766392 125.831482 872.656799 165.632935 -73.504555 105.500870 881.701050
53 5.766392 125.831482 872.656799 164.733368 -72.382469 106.696480 881.701050
[R_Hip]
51 5.765438 125.836372 -872.654907 22.337265 76.177002 110.337784 881.699829
52 5.765438 125.836372 -872.654907 24.305256 75.167107 112.176552 881.699829
53 5.765438 125.836372 -872.654907 26.030767 74.142937 113.772484 881.699829
[Rear_Leg01]
51 -192.298416 -925.602966 -0.001907 161.433075 -11.150036 -170.409424 945.367432
52 -192.298416 -925.602966 -0.001907 165.236816 -10.000443 -169.376938 945.367432
53 -192.298416 -925.602966 -0.001907 168.866547 -8.181577 -168.596725 945.367432
[Spine1]
51 290.604584 5.007505 0.000477 -0.886854 3.524163 6.390541 290.647736
52 290.604584 5.007505 0.000477 -1.188701 1.939614 7.695130 290.647736
53 290.604584 5.007505 0.000477 -1.526498 0.361834 9.007771 290.647736
[L_Leg01]
51 761.932007 -0.002384 -0.069261 5.349354 -52.600258 6.254842 761.932068
52 761.932007 -0.002384 -0.069261 10.397030 -51.264805 -0.406586 761.932068
53 761.932007 -0.002384 -0.069261 16.318764 -49.457127 -8.886638 761.932068
[L_Leg02]
51 1441.140503 -0.000954 -0.000715 2.315856 -0.472192 -138.003998 1441.140503
52 1441.140503 -0.000954 -0.000715 2.503846 -0.410333 -136.929688 1441.140503
53 1441.140503 -0.000954 -0.000715 2.602495 -0.321687 -134.464890 1441.140503
[L_Leg03]
51 1686.963989 -0.000715 -0.000954 0.002315 -0.000387 108.960785 1686.963989
52 1686.963989 -0.000715 -0.000954 -0.006419 0.003601 111.636040 1686.963989
53 1686.963989 -0.000715 -0.000954 -0.014962 0.007995 114.312798 1686.963989
[L_Foot]
51 3041.570068 -30.715107 11.297464 -6.997010 6.481566 49.373940 3041.746094
52 3041.570068 -30.715107 11.297464 -6.713782 6.683307 48.670998 3041.746094
53 3041.570068 -30.715107 11.297464 -6.230704 6.974821 47.436718 3041.746094
[L_Toe1_01]
51 -188.216690 -224.732346 -21.137953 90.040108 -2.759522 -161.321716 293.899567
52 -188.216690 -224.732346 -21.137953 90.165543 -2.944713 -161.887039 293.899567
53 -188.216690 -224.732346 -21.137953 90.335579 -3.230170 -162.856430 293.899567
[L_Toe2_01]
51 200.746536 -219.926590 148.838394 -82.182541 -16.216402 -39.617275 332.896027
52 200.746536 -219.926590 148.838394 -82.526299 -16.684456 -40.021976 332.896027
53 200.746536 -219.926590 148.838394 -82.867432 -17.154797 -40.424713 332.896027
[L_Toe3_01]
51 188.832520 -219.859131 -191.078659 -106.203308 29.309607 -47.320518 347.140900
52 188.832520 -219.859131 -191.078659 -105.937958 28.711380 -47.851269 347.140900
53 188.832520 -219.859131 -191.078659 -105.616043 27.814514 -48.416924 347.140900
[planeAlignerLeft]
51 20.934752 -525.178711 -22.039749 170.534790 -87.170082 97.206848 526.057739
52 25.634657 -525.438721 -15.193232 170.369019 -86.719978 97.015610 526.283020
53 30.334671 -525.698792 -8.346663 170.200104 -86.269859 96.827301 526.639404
[L_Toe1_02]
51 413.761139 0.000477 0.000000 0.001396 -24.406414 0.001396 413.761139
52 413.761139 0.000477 0.000000 0.001393 -24.752211 0.001393 413.761139
53 413.761139 0.000477 0.000000 0.001391 -25.098021 0.001391 413.761139
[L_Toe1_03]
51 464.317322 0.000358 -0.000089 0.002658 37.602257 0.002658 464.317322
52 464.317322 0.000358 -0.000089 0.002757 39.604034 0.002757 464.317322
53 464.317322 0.000358 -0.000089 0.002896 42.148930 0.002896 464.317322
[L_Toe2_02]
51 342.235809 -0.000477 0.000238 0.001180 -78.021431 0.001180 342.235809
52 342.235809 -0.000477 0.000238 0.001180 -77.859131 0.001180 342.235809
53 342.235809 -0.000477 0.000238 0.001180 -77.696808 0.001180 342.235809
[L_Toe2_03]
51 420.210846 -0.000715 0.000000 -179.997269 75.340958 -179.993744 420.210846
52 420.210846 -0.000715 0.000000 -179.997009 76.097008 -179.993484 420.210846
53 420.210846 -0.000715 0.000000 -179.996475 77.499054 -179.992966 420.210846
[L_Toe3_02]
51 329.270111 0.000954 0.000000 0.004493 -83.595093 0.004493 329.270111
52 329.270111 0.000954 0.000000 0.004309 -83.496574 0.004309 329.270111
53 329.270111 0.000954 0.000000 0.004125 -83.398056 0.004125 329.270111
[L_Toe3_03]
51 439.137451 -0.001907 0.000954 179.991562 61.907402 179.998779 439.137451
52 439.137451 -0.001907 0.000954 179.991531 62.132175 179.998734 439.137451
53 439.137451 -0.001907 0.000954 179.991409 62.825623 179.998596 439.137451
[planeLockWeightLeft]
51 1000.000122 0.000190 -0.000103 -0.011826 -0.004376 0.005620 1000.000122
52 1000.000122 0.000173 -0.000103 -0.011826 -0.004376 0.005620 1000.000122
53 1000.000122 0.000157 -0.000103 -0.011826 -0.004376 0.005620 1000.000122
[R_Leg01]
51 761.455627 -0.001907 -0.000358 138.384583 -36.748165 45.892258 761.455688
52 761.455627 -0.001907 -0.000358 137.641510 -34.001457 44.331062 761.455688
53 761.455627 -0.001907 -0.000358 136.810822 -30.944189 42.730785 761.455688
[R_Leg02]
51 1441.140625 0.000000 -0.000238 -1.582162 -0.459264 -142.254898 1441.140625
52 1441.140625 0.000000 -0.000238 -1.977362 -0.745791 -145.367523 1441.140625
53 1441.140625 0.000000 -0.000238 -2.356451 -1.053350 -148.478348 1441.140625
[R_Leg03]
51 1686.963989 0.000954 0.001431 0.095587 -0.055604 135.828110 1686.963989
52 1686.963989 0.000954 0.001431 0.108686 -0.065323 139.336349 1686.963989
53 1686.963989 0.000954 0.001431 0.121154 -0.075814 142.841309 1686.963989
[R_Foot]
51 3041.560059 -30.531288 -11.204481 7.853741 -7.061244 62.551537 3041.734131
52 3041.560059 -30.531288 -11.204481 6.672916 -7.393716 63.291874 3041.734131
53 3041.560059 -30.531288 -11.204481 5.487466 -7.710819 64.039215 3041.734131
[planeAlignerRight]
51 -34.582649 -760.562256 -95.163361 -36.765720 -84.995903 -56.423603 767.272461
52 -43.601021 -746.135498 -115.194237 -36.760693 -83.690895 -57.224567 756.233398
53 -52.619419 -731.708679 -135.225204 -36.894302 -82.386139 -57.888046 745.957336
[R_Toe1_01]
51 -188.383347 -224.864899 21.052242 87.130341 -2.421681 -153.999481 294.101532
52 -188.383347 -224.864899 21.052242 85.916626 -2.199724 -155.939590 294.101532
53 -188.383347 -224.864899 21.052242 84.695229 -2.018856 -157.885345 294.101532
[R_Toe2_01]
51 200.637817 -220.002121 -148.787384 -98.983292 7.013057 -55.930599 332.857574
52 200.637817 -220.002121 -148.787384 -98.775352 8.955218 -56.335342 332.857574
53 200.637817 -220.002121 -148.787384 -98.509499 11.387682 -56.724655 332.857574
[R_Toe3_01]
51 188.606735 -220.092957 191.126343 -62.214836 -25.559019 -71.624489 347.192566
52 188.606735 -220.092957 191.126343 -63.035282 -23.873739 -71.888329 347.192566
53 188.606735 -220.092957 191.126343 -63.854134 -22.191559 -72.175003 347.192566
[planeLockWeightRight]
51 1000.000000 0.000305 -0.000433 -0.011823 -0.004379 -0.000027 1000.000000
52 1000.000000 0.000305 -0.000434 -0.011823 -0.004379 -0.000027 1000.000000
53 1000.000000 0.000305 -0.000434 -0.011823 -0.004379 -0.000027 1000.000000
[R_Toe1_02]
51 413.762085 0.000477 -0.000119 0.001386 -25.732090 0.001386 413.762085
52 413.762085 0.000477 -0.000119 0.001387 -25.643551 0.001387 413.762085
53 413.762085 0.000477 -0.000119 0.001387 -25.555010 0.001387 413.762085
[R_Toe1_03]
51 464.317810 0.000000 0.001088 0.004310 58.381344 0.004310 464.317810
52 464.317810 0.000000 0.001088 0.004529 59.942719 0.004529 464.317810
53 464.317810 0.000000 0.001088 0.004770 61.503811 0.004770 464.317810
[R_Toe2_02]
51 342.234741 -0.000954 0.000238 0.001209 -62.082413 0.001209 342.234741
52 342.234741 -0.000954 0.000238 0.001208 -62.843262 0.001208 342.234741
53 342.234741 -0.000954 0.000238 0.001206 -63.604137 0.001206 342.234741
[R_Toe2_03]
51 420.210846 0.000715 -0.000268 -0.004388 64.389008 -0.000801 420.210846
52 420.210846 0.000715 -0.000268 -0.004519 65.673843 -0.000940 420.210846
53 420.210846 0.000715 -0.000268 -0.004664 66.958710 -0.001094 420.210846
[R_Toe3_02]
51 329.270355 -0.000477 -0.000954 -0.002385 -63.862572 -0.002385 329.270355
52 329.270355 -0.000477 -0.000954 -0.001783 -65.034302 -0.001783 329.270355
53 329.270355 -0.000477 -0.000954 -0.001183 -66.206520 -0.001183 329.270355
[R_Toe3_03]
51 439.137939 0.000238 0.001431 0.004993 62.807484 0.004993 439.137939
52 439.137939 0.000238 0.001431 0.005310 64.461838 0.005310 439.137939
53 439.137939 0.000238 0.001431 0.005798 66.624489 0.005798 439.137939
[Rear_Leg02]
51 1162.777710 -0.029802 0.005960 -33.353786 29.185427 -153.656616 1162.777710
52 1162.777710 -0.029802 0.005960 -31.598198 27.591497 -156.325882 1162.777710
53 1162.777710 -0.029802 0.005960 -29.047104 26.227810 -157.981598 1162.777710
[Rear_Leg03]
51 607.192505 -0.013351 -0.073195 0.010164 -0.005730 75.181137 607.192505
52 607.192505 -0.013351 -0.073195 0.010155 -0.005747 75.370331 607.192505
53 607.192505 -0.013351 -0.073195 0.010168 -0.005724 75.111443 607.192505
[Rear_Leg04]
51 995.874512 -0.020504 -0.011921 -0.045799 -0.016461 83.877594 995.874573
52 995.874512 -0.020504 -0.011921 -0.045875 -0.016242 84.423820 995.874573
53 995.874512 -0.020504 -0.011921 -0.045825 -0.016384 84.070450 995.874573
[Rear_Foot]
51 3096.176270 -0.067472 -0.041425 90.313171 49.463882 -90.142822 3096.176270
52 3096.176270 -0.067472 -0.041425 91.422981 51.254288 -90.468864 3096.176270
53 3096.176270 -0.067472 -0.041425 91.439072 53.682320 -91.363197 3096.176270
[planeAlignerCenter]
51 -65.862015 -16.057096 -893.583008 3.194658 -0.001613 179.998306 896.150818
52 -45.449150 49.167507 -933.687805 3.579487 -0.001608 179.998291 936.085449
53 -25.557629 110.180183 -970.556274 3.964376 -0.001602 179.998291 977.124573
[Rear_Toe1_01]
51 0.653352 83.966492 -371.173737 3.908696 34.158459 95.284409 380.553192
52 0.653352 83.966492 -371.173737 2.669500 36.556786 93.633453 380.553192
53 0.653352 83.966492 -371.173737 1.784501 39.239975 92.388321 380.553192
[Rear_Toe2_01]
51 178.200760 -294.826019 -362.060547 -4.006422 57.762035 -75.476303 499.765686
52 178.200760 -294.826019 -362.060547 -0.738126 61.099827 -70.350601 499.765686
53 178.200760 -294.826019 -362.060547 4.741539 64.224892 -63.229519 499.765686
[Rear_Toe3_01]
51 -153.359680 -308.780914 -362.060852 -4.193056 57.025017 -117.737831 499.952881
52 -153.359680 -308.780914 -362.060852 -5.804919 60.235405 -119.409233 499.952881
53 -153.359680 -308.780914 -362.060852 -7.648530 63.345219 -121.247032 499.952881
[planeLockWeightCenter]
51 -0.000057 0.000305 -0.000014 -0.011814 -0.004373 -0.000015 0.000311
52 -0.000038 0.000305 -0.000010 -0.011814 -0.004373 -0.000015 0.000308
53 -0.000019 0.000305 -0.000005 -0.011814 -0.004373 -0.000015 0.000306
[Rear_Toe1_02]
51 379.707825 0.194073 0.000477 -0.006723 -29.912056 -0.006723 379.707855
52 379.707825 0.194073 0.000477 -0.004672 -31.291084 -0.004672 379.707855
53 379.707825 0.194073 0.000477 -0.002648 -32.670135 -0.002648 379.707855
[Rear_Toe1_03]
51 500.129700 0.165701 0.000119 -179.994919 70.045570 -179.998459 500.129761
52 500.129700 0.165701 0.000119 -179.992111 79.259003 -179.995621 500.129761
53 500.129700 0.165701 0.000119 -179.929916 89.035919 -179.933411 500.129761
[Rear_Toe2_02]
51 340.494507 0.000238 -0.000954 0.001174 -89.266983 0.001174 340.494507
52 340.494507 0.000238 -0.000954 0.000000 -89.798264 0.000000 340.494507
53 340.494507 0.000238 -0.000954 0.000000 -89.670753 -0.002347 340.494507
[Rear_Toe2_03]
51 433.103577 0.000000 0.000238 -179.995071 68.986397 -179.998627 433.103546
52 433.103577 0.000000 0.000238 -179.995392 66.484543 -179.998962 433.103546
53 433.103577 0.000000 0.000238 -179.995529 65.276421 -179.999100 433.103546
[Rear_Toe3_02]
51 340.494141 -0.000358 -0.000477 0.001174 -86.819183 0.001174 340.494171
52 340.494141 -0.000358 -0.000477 0.001174 -88.333046 0.001174 340.494171
53 340.494141 -0.000358 -0.000477 0.001174 -89.329437 0.001174 340.494171
[Rear_Toe3_03]
51 433.103577 0.001431 -0.000238 -179.996918 76.367592 -179.993393 433.103546
52 433.103577 0.001431 -0.000238 -179.998108 71.928879 -179.994568 433.103546
53 433.103577 0.001431 -0.000238 -179.998657 68.782372 -179.995102 433.103546
[Back_Bone]
51 1312.175781 -701.934692 0.000954 2.373871 -0.574590 -88.605881 1488.125488
52 1312.175781 -701.934692 0.000954 2.419747 -1.292062 -88.893173 1488.125488
53 1312.175781 -701.934692 0.000954 2.469238 -2.009263 -89.181145 1488.125488
[Head]
51 1406.159424 809.709290 0.001431 1.397524 0.594501 6.319783 1622.625488
52 1406.159424 809.709290 0.001431 1.341613 0.510845 6.378582 1622.625488
53 1406.159424 809.709290 0.001431 1.285615 0.427245 6.437464 1622.625488
[Motor_Bone]
51 1158.364380 -417.834747 0.000477 -2.203643 -0.253251 -106.241302 1231.419434
52 1158.364380 -417.834747 0.000477 -2.687923 0.131920 -105.851540 1231.419434
53 1158.364380 -417.834747 0.000477 -5.513591 1.191221 -104.796608 1231.419434
[Ping_Mechanism]
51 1312.607178 -463.476257 -17.053936 0.000103 -0.000053 82.120995 1392.134644
52 1306.635498 -462.080078 -10.850209 0.000103 -0.000053 82.120995 1385.976929
53 1299.716431 -460.083374 -2.689472 0.000103 -0.000053 82.120995 1378.748291
[BN_LookIK]
51 193.241119 1380.371704 -0.002861 0.000000 89.965736 -31.038179 1393.832153
52 193.241119 1380.371704 -0.002861 0.000000 89.965736 -31.038179 1393.832153
53 193.241119 1380.371704 -0.002861 0.000000 89.965736 -31.038179 1393.832153
[bottomMouth]
51 -435.092926 615.759399 -0.000954 -0.000022 0.000016 73.527184 753.966492
52 -435.092926 615.759399 -0.000954 -0.000022 0.000016 73.527184 753.966492
53 -435.092926 615.759399 -0.000954 -0.000022 0.000016 73.527184 753.966492
[L_Mouth01]
51 554.440979 7.658243 838.222046 150.204178 23.759130 109.605339 1005.027161
52 554.440979 7.658243 838.222046 150.204178 23.759130 109.605339 1005.027161
53 554.440979 7.658243 838.222046 150.204178 23.759130 109.605339 1005.027161
[L_mouthFront]
51 551.629089 934.514771 339.150421 0.000081 2.804060 79.119301 1136.941284
52 551.629089 934.514771 339.150421 0.000081 2.804060 79.119301 1136.941284
53 551.629089 934.514771 339.150421 0.000081 2.804060 79.119301 1136.941284
[mouthGun]
51 55.332661 1627.420898 0.000000 0.000023 0.000009 -11.038128 1628.361328
52 55.332661 1627.420898 0.000000 0.000023 0.000009 -11.038128 1628.361328
53 55.332661 1627.420898 0.000000 0.000023 0.000009 -11.038128 1628.361328
[R_Mouth01]
51 554.442383 7.659197 -838.223938 29.795891 -23.759109 109.605331 1005.029541
52 554.442383 7.659197 -838.223938 29.795891 -23.759109 109.605331 1005.029541
53 554.442383 7.659197 -838.223938 29.795891 -23.759109 109.605331 1005.029541
[R_mouthFront]
51 551.629089 934.514282 -339.151367 0.000029 -2.803930 79.119133 1136.941162
52 551.629089 934.514282 -339.151367 0.000029 -2.803930 79.119133 1136.941162
53 551.629089 934.514282 -339.151367 0.000029 -2.803930 79.119133 1136.941162
[TopMouth]
51 461.269867 -56.106091 -0.008583 -0.000059 -0.000268 92.025169 464.669525
52 461.269867 -56.106091 -0.008583 -0.000059 -0.000268 92.025169 464.669525
53 461.269867 -56.106091 -0.008583 -0.000059 -0.000268 92.025169 464.669525
[weapon_bone]
51 -987.239868 1448.372803 0.001431 0.000000 89.965736 -31.038221 1752.833740
52 -987.239868 1448.372803 0.001431 0.000000 89.965736 -31.038221 1752.833740
53 -987.239868 1448.372803 0.001431 0.000000 89.965736 -31.038221 1752.833740
